<svg width="24" height="24" viewBox="0 0 24 24" fill="none" xmlns="http://www.w3.org/2000/svg">
<path d="M12 1C5.92487 1 1 5.92487 1 12C1 18.0752 5.92487 23 12 23C18.0752 23 23 18.0752 23 12C23 5.92487 18.0752 1 12 1Z" stroke="#EC1C24" stroke-width="1.5"/>
<path d="M12 12.0001C14.0251 12.0001 15.6667 10.3585 15.6667 8.33341C15.6667 6.30838 14.0251 4.66675 12 4.66675C9.97489 4.66675 8.33333 6.30838 8.33333 8.33341C8.33333 10.3585 9.97489 12.0001 12 12.0001Z" stroke="#EC1C24" stroke-width="1.5"/>
<path d="M4.66667 20.1991C4.66667 18.2195 6.09877 15.6667 8.33334 15.6667H15.6667C17.9013 15.6667 19.3333 18.2195 19.3333 20.1991" stroke="#EC1C24" stroke-width="1.5"/>
</svg>
